<svg width="24" height="24" viewBox="0 0 24 24" fill="none" xmlns="http://www.w3.org/2000/svg">
<path d="M12 22C10.6167 22 9.31667 21.7373 8.1 21.212C6.88334 20.6867 5.825 19.9743 4.925 19.075C4.025 18.1757 3.31267 17.1173 2.788 15.9C2.26333 14.6827 2.00067 13.3827 2 12C1.99933 10.6173 2.262 9.31733 2.788 8.1C3.314 6.88267 4.02633 5.82433 4.925 4.925C5.82367 4.02567 6.882 3.31333 8.1 2.788C9.318 2.26267 10.618 2 12 2C13.382 2 14.682 2.26267 15.9 2.788C17.118 3.31333 18.1763 4.02567 19.075 4.925C19.9737 5.82433 20.6863 6.88267 21.213 8.1C21.7397 9.31733 22.002 10.6173 22 12C21.998 13.3827 21.7353 14.6827 21.212 15.9C20.6887 17.1173 19.9763 18.1757 19.075 19.075C18.1737 19.9743 17.1153 20.687 15.9 21.213C14.6847 21.739 13.3847 22.0013 12 22ZM12 20C14.2333 20 16.125 19.225 17.675 17.675C19.225 16.125 20 14.2333 20 12C20 11.8833 19.996 11.7623 19.988 11.637C19.98 11.5117 19.9757 11.4077 19.975 11.325C19.8917 11.8083 19.6667 12.2083 19.3 12.525C18.9333 12.8417 18.5 13 18 13H16C15.45 13 14.9793 12.8043 14.588 12.413C14.1967 12.0217 14.0007 11.5507 14 11V10H10V8C10 7.45 10.196 6.97933 10.588 6.588C10.98 6.19667 11.4507 6.00067 12 6H13C13 5.61667 13.1043 5.27933 13.313 4.988C13.5217 4.69667 13.7757 4.459 14.075 4.275C13.7417 4.19167 13.4043 4.125 13.063 4.075C12.7217 4.025 12.3673 4 12 4C9.76667 4 7.875 4.775 6.325 6.325C4.775 7.875 4 9.76667 4 12H9C10.1 12 11.0417 12.3917 11.825 13.175C12.6083 13.9583 13 14.9 13 16V17H10V19.75C10.3333 19.8333 10.6627 19.896 10.988 19.938C11.3133 19.98 11.6507 20.0007 12 20Z" fill="#372493"/>
</svg>
